<svg xmlns="http://www.w3.org/2000/svg" xml:space="preserve" width="239px" height="34px" version="1.1" style="fill:#fff; fill-rule:nonzero; shape-rendering:geometricPrecision; text-rendering:geometricPrecision; image-rendering:optimizeQuality; fill-rule:evenodd; clip-rule:evenodd" viewBox="0 0 239 33.95" xmlns:xlink="http://www.w3.org/1999/xlink">
<g>
<path d="M0.3 0.02c3.02,0 6.04,0 9.05,0 2.32,2.02 4.64,4.04 6.96,6.06 0,-2.02 0,-4.04 0,-6.06 2.25,0 4.5,0 6.75,0 -0.02,3.38 -0.05,6.76 -0.07,10.15 -3.8,0 -7.6,-0.02 -11.4,-0.01 -0.14,-0.02 -0.32,0.04 -0.43,-0.08 -3.62,-3.36 -7.25,-6.7 -10.86,-10.06zm24.93 0c2.26,0 4.51,0 6.76,0 0,2.02 0,4.03 0,6.05 2.29,-1.98 4.56,-3.97 6.84,-5.95 0.13,-0.15 0.33,-0.09 0.5,-0.1 2.89,0 5.78,0 8.67,0 -3.63,3.35 -7.26,6.7 -10.89,10.05 -0.11,0.12 -0.29,0.07 -0.44,0.09 -3.78,-0.01 -7.57,0 -11.36,0 -0.03,-3.38 -0.05,-6.76 -0.08,-10.14zm-13.96 10.39c3.91,-0.02 7.81,-0.01 11.72,-0.01 0,0.41 0,0.83 0,1.24 -4.38,0 -8.76,0 -13.15,0 0.49,-0.4 0.92,-0.87 1.43,-1.23zm14.04 -0.02c3.86,0 7.73,0.01 11.59,0.01 0.15,-0.03 0.25,0.09 0.36,0.17 0.39,0.37 0.79,0.72 1.19,1.08 -4.38,-0.01 -8.77,-0.01 -13.15,-0.01 0,-0.42 0,-0.83 0.01,-1.25zm-16.05 1.79c4.74,-0.02 9.47,0 14.2,-0.01 0.23,0.26 0.46,0.51 0.69,0.77 0.23,-0.25 0.45,-0.51 0.68,-0.77 4.74,0.01 9.49,0 14.24,0.02 0.49,0.44 0.99,0.88 1.48,1.33 -10.94,0 -21.88,-0.01 -32.83,-0.01 0.52,-0.43 1,-0.93 1.54,-1.33zm-3.92 3.47c0.53,-0.45 1.03,-0.96 1.59,-1.38 2.97,-0.03 5.94,-0.01 8.9,-0.03 0.45,0.46 0.88,0.94 1.32,1.41 -3.94,0 -7.88,0 -11.81,0zm11.84 -1.39c4.71,-0.01 9.43,-0.01 14.14,-0.01 -0.43,0.47 -0.87,0.93 -1.3,1.39 -3.86,0.01 -7.71,0.01 -11.57,0.01 -0.42,-0.46 -0.85,-0.93 -1.27,-1.39zm13.98 1.39c0.44,-0.46 0.87,-0.93 1.3,-1.39 2.92,-0.01 5.85,0 8.77,0 0.16,-0.03 0.26,0.09 0.37,0.18 0.45,0.41 0.91,0.81 1.36,1.22 -3.93,-0.01 -7.86,0.01 -11.8,-0.01zm-26.53 0.63c4.32,0 8.64,0 12.96,0 0.16,-0.03 0.25,0.11 0.34,0.21 0.39,0.42 0.78,0.84 1.17,1.26 -5.38,0.01 -10.76,0.01 -16.14,0.02 0.56,-0.5 1.11,-0.99 1.67,-1.49zm14.39 0c3.47,0 6.94,0 10.41,0 -0.46,0.5 -0.93,1 -1.39,1.49 -2.56,-0.01 -5.12,-0.01 -7.69,-0.02 -0.44,-0.49 -0.89,-0.98 -1.33,-1.47zm11.55 0.01c4.36,0.01 8.72,-0.01 13.08,0.01 0.59,0.45 1.12,0.98 1.68,1.47 -5.37,-0.01 -10.74,-0.01 -16.12,-0.01 0.45,-0.49 0.9,-0.98 1.36,-1.47zm-28.82 2.55c2.89,0 5.79,-0.01 8.68,-0.01 -0.45,0.53 -0.9,1.06 -1.36,1.58 -3.03,0 -6.05,0 -9.08,0 0.59,-0.52 1.17,-1.05 1.76,-1.57zm10.23 0c2.71,0 5.42,0 8.13,0 0.48,0.52 0.96,1.05 1.44,1.57 -2.73,0 -5.45,0 -8.17,-0.01 -0.46,-0.53 -0.93,-1.04 -1.4,-1.56zm9.35 -0.02c1.9,0.01 3.8,0.02 5.7,0.03 -0.48,0.52 -0.96,1.04 -1.45,1.56 -0.94,0 -1.88,-0.01 -2.82,0 -0.49,-0.52 -0.95,-1.06 -1.43,-1.59zm6.86 0.03c2.71,-0.03 5.42,0 8.14,-0.01 -0.47,0.52 -0.93,1.05 -1.41,1.56 -2.72,0 -5.44,0.01 -8.15,0.01 0.47,-0.52 0.96,-1.03 1.42,-1.56zm9.69 -0.01c2.89,0 5.77,0 8.66,0 0.59,0.52 1.18,1.04 1.77,1.57 -3.03,0 -6.06,0 -9.09,0 -0.44,-0.52 -0.9,-1.04 -1.34,-1.57zm-23.5 2.66c2.73,0 5.45,0 8.17,0 0.29,0.31 0.58,0.62 0.86,0.93 -0.32,0.31 -0.64,0.62 -0.95,0.92 -2.65,0 -5.29,0.01 -7.93,0.01 0.27,-0.27 0.53,-0.53 0.8,-0.8 -0.32,-0.35 -0.63,-0.7 -0.95,-1.06zm11.34 0.03c2.74,-0.01 5.48,-0.02 8.22,-0.04 -0.31,0.37 -0.65,0.72 -0.96,1.09 0.26,0.25 0.52,0.51 0.78,0.77 -2.64,0 -5.28,0.01 -7.92,0 -0.32,-0.31 -0.64,-0.61 -0.95,-0.93 0.28,-0.29 0.56,-0.59 0.83,-0.89zm-12.6 3.25c0.12,-0.14 0.31,-0.07 0.47,-0.09 2.49,0.01 4.99,0 7.49,0.01 -0.67,0.65 -1.33,1.29 -1.99,1.94 -0.13,0.13 -0.35,0.06 -0.51,0.08 -2.46,-0.01 -4.93,0 -7.39,0 0.64,-0.65 1.28,-1.3 1.93,-1.94zm9.38 -0.08c1.03,-0.02 2.06,-0.01 3.09,-0.02 0.16,-0.04 0.27,0.08 0.36,0.18 0.61,0.62 1.22,1.24 1.82,1.86 -2.41,0 -4.83,0 -7.25,0 0.66,-0.68 1.33,-1.34 1.98,-2.02zm4.71 -0.01c2.57,0 5.13,0 7.69,-0.01 0.16,-0.03 0.27,0.09 0.37,0.19 0.61,0.62 1.22,1.23 1.83,1.84 -2.61,-0.01 -5.22,0 -7.83,-0.02 -0.68,-0.67 -1.37,-1.33 -2.06,-2zm-20.06 6.08c0.78,-0.78 1.55,-1.56 2.33,-2.34 2.58,0.01 5.17,0.01 7.75,0.02 -0.81,0.77 -1.58,1.59 -2.41,2.33 -2.56,0.01 -5.11,-0.01 -7.67,-0.01zm9.37 0.01c0.76,-0.77 1.53,-1.55 2.3,-2.33 3.55,0 7.1,0.01 10.66,0 0.77,0.77 1.52,1.55 2.29,2.32 -5.08,0.01 -10.17,0.01 -15.25,0.01zm14.54 -2.35c2.46,0 4.92,0.02 7.39,0.02 0.16,0.02 0.36,-0.05 0.47,0.1 0.75,0.74 1.49,1.49 2.23,2.23 -2.56,-0.01 -5.12,0.01 -7.68,-0.01 -0.83,-0.75 -1.6,-1.57 -2.41,-2.34zm-26.17 4.61c2.55,-0.02 5.1,-0.01 7.66,-0.02 -0.32,0.31 -0.65,0.62 -0.97,0.94 -2.53,0 -5.06,0 -7.6,0 0.3,-0.31 0.61,-0.61 0.91,-0.92zm9.4 0.01c2.57,-0.01 5.14,0 7.7,0 -0.26,0.31 -0.54,0.61 -0.82,0.91 -2.59,0 -5.18,0 -7.78,0 0.3,-0.31 0.6,-0.61 0.9,-0.91zm12 -0.01c2.58,0.01 5.17,0.01 7.75,0.03 0.28,0.3 0.58,0.59 0.86,0.89 -2.59,0 -5.18,0 -7.78,0 -0.28,-0.31 -0.56,-0.61 -0.83,-0.92zm9.47 -0.01c2.55,0.01 5.1,0.01 7.65,0.01 0.3,0.31 0.6,0.61 0.91,0.92 -2.53,0.01 -5.06,-0.01 -7.58,0.01 -0.34,-0.3 -0.65,-0.63 -0.98,-0.94z"/>
<path d="M85.78 30.72l-6.06 -11.26c-0.32,-0.64 -0.54,-1.15 -0.66,-1.54l-0.11 0 0 12.8 -7.76 0 0 -12.8 -0.07 0c-0.14,0.49 -0.36,1 -0.66,1.54l-6.04 11.26 -9.51 0 8.68 -14.12 -7.94 -12.88 9.25 0 5.9 11.73 0.32 0.77 0.07 0 0 -12.5 7.76 0 0 12.5 0.07 0 0.34 -0.77 5.89 -11.73 9.28 0 -7.95 12.88 8.68 14.12 -9.48 0z"/>
<path d="M113.95 30.72l0 -11.33c0,-1.66 0.04,-3.15 0.11,-4.48l-0.07 0c-0.26,0.42 -0.54,0.89 -0.87,1.37 -0.33,0.49 -3.83,5.31 -10.51,14.44l-7.14 0 0 -27 7.52 0 0 11.77c0,1.46 -0.04,2.52 -0.11,3.2l0.07 0c0.05,-0.12 0.12,-0.24 0.2,-0.38 0.08,-0.14 0.58,-0.87 1.49,-2.2l9.15 -12.39 7.68 0 0 27 -7.52 0z"/>
<path d="M137.21 10.32c-0.63,5.35 -1.21,9.2 -1.74,11.56 -0.54,2.36 -1.17,4.17 -1.89,5.43 -0.73,1.27 -1.64,2.21 -2.74,2.83 -1.1,0.62 -2.4,0.93 -3.87,0.93 -1.48,0 -2.74,-0.14 -3.79,-0.42l0 -6.41c0.42,0.16 0.93,0.23 1.5,0.23 0.71,0 1.35,-0.34 1.92,-1.02 0.57,-0.69 1.07,-1.84 1.5,-3.45 0.42,-1.61 0.87,-3.86 1.34,-6.76 0.47,-2.89 0.89,-6.07 1.26,-9.52l18.9 0 0 27 -8.14 0 0 -20.4 -4.25 0z"/>
<path d="M168.25 30.72l-6 -11.4c-0.4,-0.91 -0.64,-1.53 -0.71,-1.87l-0.08 0 0 13.27 -8.14 0 0 -27 8.14 0 0 12.85 0.08 0c0.23,-0.68 0.5,-1.31 0.81,-1.89l5.39 -10.96 9.65 0 -7.68 12.88 8.41 14.12 -9.87 0z"/>
<path d="M204.02 17.14c0,2.71 -0.58,5.14 -1.75,7.28 -1.17,2.14 -2.8,3.8 -4.9,4.99 -2.09,1.19 -4.44,1.78 -7.04,1.78 -2.54,0 -4.84,-0.58 -6.92,-1.73 -2.08,-1.15 -3.7,-2.76 -4.86,-4.84 -1.15,-2.07 -1.73,-4.43 -1.73,-7.05 0,-2.75 0.59,-5.22 1.75,-7.42 1.17,-2.2 2.81,-3.9 4.92,-5.09 2.11,-1.2 4.51,-1.8 7.2,-1.8 2.58,0 4.9,0.57 6.93,1.72 2.05,1.15 3.62,2.79 4.74,4.92 1.11,2.13 1.66,4.54 1.66,7.24zm-8.64 0.23c0,-2.22 -0.42,-3.97 -1.28,-5.25 -0.85,-1.28 -2.02,-1.92 -3.5,-1.92 -1.62,0 -2.88,0.62 -3.78,1.85 -0.9,1.22 -1.35,2.96 -1.35,5.21 0,2.19 0.45,3.91 1.34,5.14 0.9,1.23 2.11,1.84 3.66,1.84 0.94,0 1.79,-0.27 2.54,-0.83 0.75,-0.55 1.33,-1.34 1.75,-2.37 0.41,-1.03 0.62,-2.25 0.62,-3.67z"/>
<path d="M230.97 30.72l0 -14.8c0,-1.39 0.04,-2.92 0.12,-4.59l0.06 -1.24 -0.22 0c-0.4,2.12 -0.71,3.58 -0.92,4.4l-3.98 16.23 -7.65 0 -4.16 -16.04c-0.11,-0.4 -0.41,-1.93 -0.88,-4.59l-0.23 0c0.18,4.21 0.27,6.85 0.27,7.9l0 12.73 -7.14 0 0 -27 12.18 0 3.71 14.66c0.09,0.3 0.21,0.91 0.36,1.84 0.14,0.92 0.23,1.63 0.27,2.13l0.11 0c0.14,-1.14 0.35,-2.48 0.66,-4.04l3.46 -14.59 12 0 0 27 -8.02 0z"/>
</g>
</svg>
